<?xml version="1.0" encoding="UTF-8" standalone="no"?>
<svg
   xmlns:dc="http://purl.org/dc/elements/1.1/"
   xmlns:cc="http://creativecommons.org/ns#"
   xmlns:rdf="http://www.w3.org/1999/02/22-rdf-syntax-ns#"
   xmlns:svg="http://www.w3.org/2000/svg"
   xmlns="http://www.w3.org/2000/svg"
   xmlns:sodipodi="http://sodipodi.sourceforge.net/DTD/sodipodi-0.dtd"
   xmlns:inkscape="http://www.inkscape.org/namespaces/inkscape"
   version="1.0"
   width="256.000000pt"
   height="256.000000pt"
   viewBox="0 0 256.000000 256.000000"
   preserveAspectRatio="xMidYMid meet"
   id="svg22"
   sodipodi:docname="nestdesktop_icon.svg"
   inkscape:version="0.92.4 (5da689c313, 2019-01-14)">
  <metadata
     id="metadata28">
    <rdf:RDF>
      <cc:Work
         rdf:about="">
        <dc:format>image/svg+xml</dc:format>
        <dc:type
           rdf:resource="http://purl.org/dc/dcmitype/StillImage" />
        <dc:title></dc:title>
      </cc:Work>
    </rdf:RDF>
  </metadata>
  <defs
     id="defs26" />
  <sodipodi:namedview
     pagecolor="#ffffff"
     bordercolor="#666666"
     borderopacity="1"
     objecttolerance="10"
     gridtolerance="10"
     guidetolerance="10"
     inkscape:pageopacity="0"
     inkscape:pageshadow="2"
     inkscape:window-width="1920"
     inkscape:window-height="1017"
     id="namedview24"
     showgrid="false"
     inkscape:zoom="2.58"
     inkscape:cx="170.66667"
     inkscape:cy="184.18018"
     inkscape:window-x="-8"
     inkscape:window-y="-8"
     inkscape:window-maximized="1"
     inkscape:current-layer="g20" />
  <g
     transform="translate(0.000000,256.000000) scale(0.100000,-0.100000)"
     fill="#000000"
     stroke="none"
     id="g20">
    <path
       d="M1425 2459 c-38 -4 -304 -33 -590 -64 -286 -30 -576 -62 -645 -70 -69 -8 -131 -15 -138 -15 -7 0 -21 -9 -32 -20 -27 -27 -27 -136 0 -313 11 -73 44 -332 75 -577 63 -510 60 -494 88 -539 11 -19 24 -59 28 -89 9 -66 20 -78 219 -245 294 -247 512 -416 544 -423 41 -7 113 11 371 96 116 38 334 108 485 155 151 47 373 118 493 157 247 79 237 72 237 183 l0 63 -92 57 c-51 32 -228 136 -393 232 -165 96 -302 177 -304 179 -2 2 -7 77 -12 166 -8 173 -15 219 -84 583 -24 127 -51 282 -60 345 -8 63 -18 123 -21 133 -6 19 -46 21 -169 6z m139 -131 c4 -45 25 -186 46 -313 22 -126 49 -284 60 -350 11 -66 22 -183 25 -260 3 -77 8 -159 11 -182 l5 -42 347 -207 c409 -244 412 -246 412 -282 0 -52 -9 -56 -233 -117 -309 -85 -826 -231 -1010 -286 -109 -32 -212 -59 -228 -59 -31 0 -102 55 -490 377 l-196 163 -5 58 c-4 39 -14 70 -32 96 -14 21 -26 44 -26 51 0 26 -121 827 -150 990 -17 94 -30 192 -30 217 0 39 3 47 23 51 58 15 1262 177 1407 189 19 2 40 0 46 -4 6 -5 14 -45 18 -90z"
       id="path2" />
    <path
       d="M967 2324 c-415 -45 -763 -89 -792 -101 -16 -5 -17 -17 -12 -97 10 -141 144 -1031 170 -1126 23 -83 14 -84 527 62 173 49 414 114 535 144 301 75 285 69 285 108 0 47 -142 989 -156 1039 -8 26 -99 21 -557 -29z m535 -104 c35 -231 109 -834 106 -859 -3 -24 -10 -27 -158 -63 -516 -125 -1017 -234 -1027 -224 -18 17 -186 1078 -173 1086 6 4 45 12 88 18 42 7 288 43 547 81 259 38 481 72 495 74 14 3 43 4 65 3 l40 -1 17 -115z"
       id="path4" />
    <path
       d="M1302 1065 c-399 -85 -846 -195 -900 -222 -30 -15 -38 -24 -40 -51 -3 -29 3 -40 40 -74 90 -83 304 -238 329 -238 13 0 161 47 329 103 l305 104 65 -67 c64 -66 124 -110 166 -124 30 -9 324 132 324 156 0 32 -93 89 -182 112 l-53 14 85 25 c47 14 124 37 172 52 102 30 138 55 122 82 -14 24 -362 202 -394 202 -14 -1 -179 -34 -368 -74z m437 8 c64 -35 212 -122 220 -129 2 -2 2 -6 0 -9 -8 -7 -739 -210 -997 -276 -128 -33 -239 -56 -245 -53 -45 26 -217 169 -214 178 2 6 82 32 178 58 96 25 356 96 579 157 223 60 407 110 409 110 2 1 34 -15 70 -36z m27 -365 c24 -17 44 -35 44 -39 0 -9 -152 -50 -189 -51 -31 -1 -81 28 -81 46 0 9 140 68 178 75 2 1 24 -13 48 -31z"
       id="path18" />
    <g
       id="svgg"
       transform="matrix(2.5105084,0,0,-2.4403178,414.71552,2147.9562)">
      <path
         d="m 343.911,12.618 c -2.554,0.359 -5.4,0.857 -8.269,1.447 -3.967,0.816 -8.813,1.558 -13.966,2.137 -5.078,0.571 -7.718,0.995 -12.514,2.01 -2.393,0.507 -7.357,1.308 -9.609,1.552 -0.614,0.067 -2.575,0.273 -4.357,0.459 -4.06,0.424 -6.558,0.83 -10.95,1.782 -4.886,1.059 -8.209,1.555 -15.084,2.249 -3.817,0.385 -4.807,0.532 -9.679,1.44 -6,1.118 -10.082,1.756 -13.561,2.12 -5.547,0.58 -7.002,0.785 -10.503,1.481 -6.948,1.383 -10.901,2.018 -16.648,2.677 -5.591,0.64 -7.385,0.952 -13.296,2.309 -2.646,0.608 -9.315,1.51 -14.19,1.92 -3.962,0.334 -6.626,0.735 -10.168,1.532 -4.897,1.102 -9.63,1.802 -15.98,2.363 -3.427,0.303 -6.168,0.787 -10.614,1.874 -3.052,0.746 -7.356,1.388 -12.288,1.833 -5.806,0.524 -8.909,0.966 -13.52,1.926 -7.452,1.552 -6.197,1.369 -16.536,2.416 -3.607,0.366 -6.024,0.789 -9.038,1.585 -2.988,0.789 -6.587,1.36 -11.856,1.883 -8.299,0.823 -10.666,1.152 -13.743,1.91 -6.389,1.575 -8.341,1.892 -15.084,2.451 -5.01,0.416 -7.182,0.754 -12.29,1.914 -4.462,1.013 -7.107,1.388 -14.079,1.996 -7.293,0.636 -8.156,0.904 -13.102,4.064 -4.482,2.863 -8.239,9.644 -8.238,14.869 0,2.069 0.428,6.042 0.885,8.222 0.232,1.106 0.774,3.671 1.205,5.699 0.906,4.264 1.328,7.23 1.828,12.849 0.434,4.873 0.814,7.387 1.672,11.061 1.412,6.05 1.956,9.585 2.456,15.978 0.298,3.803 0.727,6.831 1.321,9.31 1.322,5.526 2.118,10.508 2.474,15.494 0.411,5.743 0.629,7.18 2.028,13.355 0.355,1.568 0.845,4.032 1.088,5.475 0.434,2.578 0.555,3.635 1.261,11.003 0.195,2.028 0.606,4.893 0.913,6.368 0.308,1.475 0.801,3.838 1.097,5.252 0.296,1.413 0.539,3.137 0.54,3.831 0.003,1.616 0.732,3.981 1.429,4.636 1.103,1.036 2.111,1.057 6.283,0.131 9.238,-2.051 17.286,-3.353 25.587,-4.14 2.466,-0.234 8.197,-1.252 10.684,-1.898 1.634,-0.424 6.326,-1.092 12.444,-1.772 5.381,-0.597 8.893,-1.154 12.889,-2.044 2.136,-0.475 5.103,-0.918 8.675,-1.295 7.757,-0.819 11.504,-1.414 18.995,-3.018 2.121,-0.454 5.78,-0.938 13.702,-1.811 3.931,-0.433 6.835,-0.93 9.761,-1.67 3.454,-0.875 6.133,-1.274 14.302,-2.132 4.641,-0.487 9.82,-1.296 12.905,-2.016 2.914,-0.679 6.82,-1.253 12.741,-1.87 5.802,-0.605 9.817,-1.221 12.653,-1.94 3.639,-0.924 8.485,-1.648 14.785,-2.21 3.21,-0.287 7.201,-0.93 11.234,-1.812 4.076,-0.891 7.723,-1.449 12.218,-1.869 5.566,-0.521 10.849,-1.296 13.743,-2.016 4.311,-1.073 7.911,-1.612 14.973,-2.245 3.256,-0.291 7.913,-1.073 11.284,-1.893 4.318,-1.05 6.57,-1.413 11.844,-1.905 5.585,-0.521 10.335,-1.237 16.089,-2.426 3.624,-0.748 6.445,-1.166 10.727,-1.589 6.669,-0.659 9.796,-1.151 14.366,-2.261 4.426,-1.075 6.192,-1.364 10.044,-1.642 6.621,-0.478 15.105,-2.007 21.826,-3.934 5.492,-1.574 9.225,-5.616 11.441,-12.386 1.703,-5.204 1.792,-7.568 0.527,-13.931 -1.159,-5.826 -1.546,-8.334 -2.226,-14.443 -0.389,-3.49 -1.066,-7.996 -1.646,-10.955 -1.308,-6.669 -2.076,-11.543 -2.379,-15.084 -0.407,-4.767 -0.641,-6.604 -1.24,-9.748 -1.675,-8.787 -2.306,-12.811 -2.78,-17.738 -0.301,-3.119 -1.081,-7.93 -2.211,-13.632 -0.886,-4.472 -1.668,-10.2 -1.937,-14.19 -1.012,-15.033 -9.972,-23.229 -23.338,-21.348 m 6.987,42.012 c 3.775,0.8 8.452,4.734 9.724,8.179 3.814,10.337 -5.178,20.093 -15.938,17.291 -4.402,-1.146 -8.446,-6.21 -8.937,-11.189 -0.815,-8.269 7.324,-15.94 15.151,-14.281 m -107.593,1.897 c 4.692,0.89 7.732,5.348 8.311,12.188 0.505,5.961 2.404,7.162 7.825,4.952 8.593,-3.504 16.722,-0.727 17.678,6.04 1.141,8.075 -3.787,12.163 -15.001,12.442 -6.138,0.152 -7.665,1.618 -6.236,5.988 0.3,0.917 0.53,2.439 0.651,4.321 0.352,5.448 2.063,7.991 5.606,8.331 1.688,0.162 6.313,-2.027 12.252,-5.798 6.023,-3.825 12.906,-2.43 14.758,2.991 2.466,7.216 -1.372,12.483 -13.217,18.137 -5.687,2.714 -13.083,4.246 -18.502,3.831 -8.13,-0.623 -10.79,-1.76 -14.911,-6.369 -2.787,-3.118 -3.308,-4.349 -4.416,-10.426 -0.317,-1.736 -0.925,-4.342 -1.351,-5.79 -0.665,-2.261 -0.774,-2.96 -0.774,-4.956 0,-5.172 -0.983,-6.161 -6.369,-6.407 -5.188,-0.237 -6.542,-1.48 -7.297,-6.699 -0.776,-5.371 0.764,-8.521 4.947,-10.123 5.016,-1.92 5.367,-2.545 4.03,-7.18 -1.928,-6.684 -0.481,-11.73 4.018,-14.008 2.779,-1.407 5.589,-1.921 7.998,-1.465 m 75.39,3.501 c 7.758,2.799 12.046,11.381 8.917,17.846 -5.132,10.603 -21.023,10.241 -24.19,-0.55 -1.516,-5.167 -0.386,-10.396 2.946,-13.637 4.17,-4.056 8.042,-5.205 12.327,-3.659 m -108.726,17.91 c 2.948,1.526 5.005,6.119 5.43,12.125 0.317,4.482 -0.084,5.814 -2.559,8.511 -2.016,2.197 -1.871,2.953 0.748,3.902 4.067,1.473 6.167,3.677 8.6,9.032 4.629,10.184 -1.67,21.689 -14.391,26.287 -1.892,0.684 -3.993,1.445 -4.669,1.691 -2.95,1.073 -5.323,1.353 -12.067,1.425 -7.263,0.077 -7.247,0.076 -9.645,1.129 -6.657,2.928 -10.493,1.266 -12.446,-5.392 -2.478,-8.452 -2.341,-14.428 0.381,-16.582 3.457,-2.735 3.458,-2.768 0.298,-5.858 -9.446,-9.237 -8.49,-21.261 2.303,-28.962 2.191,-1.564 3.85,-2.295 7.05,-3.105 1.655,-0.419 4.065,-1.064 5.356,-1.434 3.871,-1.109 4.544,-1.185 9.764,-1.111 l 4.872,0.069 2.318,-0.959 c 3.755,-1.553 6.646,-1.81 8.657,-0.768 m 146.376,10.215 c 3.649,1.084 7.37,3.952 8.657,6.673 2.936,6.207 1.44,13.45 -3.496,16.916 -8.24,5.787 -18.669,1.44 -20.642,-8.603 -1.595,-8.116 7.844,-17.253 15.481,-14.986 m -217.351,1.972 c 5.251,1.045 12.282,5.186 15.141,8.919 7.024,9.166 8.367,16.383 3.89,20.902 -1.867,1.884 -1.833,2.013 1.129,4.225 1.796,1.34 2.687,3.203 2.815,5.879 0.338,7.071 -4.397,11.966 -16.618,17.177 -9.135,3.895 -22.923,4.101 -30.23,0.452 -7.507,-3.75 -13.541,-10.641 -16.201,-18.503 -1.471,-4.346 -1.389,-16.317 0.132,-19.344 2.587,-5.147 5.442,-9.031 8.821,-12 2.485,-2.183 9.681,-6.261 12.203,-6.915 6.219,-1.612 13.307,-1.909 18.918,-0.792 m 185.14,3.842 c 6.948,2.343 10.71,9.114 8.92,16.057 -1.641,6.364 -10.525,11.564 -15.945,9.332 -9.379,-3.861 -12.392,-13.511 -6.617,-21.194 2.889,-3.843 9.059,-5.74 13.642,-4.195 m -136.823,1.874 c -2.755,0.952 -3.221,3.034 -0.879,3.929 1.325,0.506 10.112,0.191 11.262,-0.403 3.795,-1.963 -5.636,-5.165 -10.383,-3.526 M 76.233,98.87 c 4.57,0.969 9.142,5.079 12.008,10.794 2.213,4.415 2.557,5.691 3.05,11.309 0.954,10.89 1.707,13.119 5.534,16.386 3.773,3.219 4.348,3.994 4.987,6.714 0.721,3.071 0.004,5.759 -2.027,7.607 -4.262,3.878 -20.543,7.014 -25.372,4.887 -3.68,-1.621 -4.336,-1.588 -6.743,0.336 -3.355,2.682 -5.873,3.533 -13.069,4.418 -12.146,1.494 -16.249,0.13 -17.713,-5.891 -0.892,-3.668 -0.005,-7.037 2.651,-10.072 2.044,-2.336 2.315,-3.537 1.593,-7.046 -0.264,-1.284 -0.724,-4.257 -1.022,-6.607 -0.82,-6.476 -1.23,-7.314 -4.916,-10.064 -3.964,-2.957 -4.686,-4.174 -4.689,-7.902 -0.005,-5.276 3.716,-8.614 11.443,-10.264 4.038,-0.863 5.948,-0.823 10.482,0.217 2.702,0.62 2.724,0.614 5.894,-1.544 4.902,-3.338 11.73,-4.588 17.909,-3.278 m 51.923,7.642 c -5.241,0.823 -9.343,3.854 -7.344,5.427 0.768,0.604 2.134,0.604 5.59,0.002 1.457,-0.254 4.006,-0.539 5.665,-0.633 4.192,-0.237 5.353,-0.857 4.721,-2.52 -0.637,-1.675 -5.049,-2.839 -8.632,-2.276 m -63.745,11.725 c -1.545,0.765 -3.845,3.656 -4.327,5.437 -0.524,1.941 0.151,7.837 1.597,13.951 0.658,2.781 4.008,6.283 6.016,6.287 0.714,0.002 1.016,-0.226 2.972,-2.241 3.82,-3.935 3.772,-3.338 1.184,-14.744 -0.293,-1.29 -0.603,-2.698 -0.689,-3.128 -0.957,-4.792 -3.717,-7.065 -6.753,-5.562 m 121.511,0.879 c -3.035,0.507 -1.807,3.221 2.022,4.471 2.515,0.821 10.252,0.83 11.91,0.014 2.315,-1.14 2.436,-3.091 0.261,-4.216 -0.691,-0.357 -12.343,-0.578 -14.193,-0.269 m -48.045,5.688 c -2.028,0.283 -4.592,0.677 -5.698,0.874 -1.106,0.198 -3.212,0.513 -4.679,0.701 -3.574,0.457 -5.237,1.217 -5.258,2.403 -0.081,4.593 13.17,4.439 20.833,-0.242 5.781,-3.531 3.755,-4.987 -5.198,-3.736"
         id="path0"
         inkscape:connector-curvature="0"
         style="fill:#fc6331;fill-rule:evenodd;stroke:none" />
      <path
         d="m 344.581,8.967 c -4.464,0.222 -9.858,0.967 -16.76,2.313 -7.734,1.509 -6.893,1.38 -12.409,1.906 -5.253,0.502 -8.283,0.968 -14.63,2.254 -5.061,1.025 -7.569,1.418 -11.285,1.766 -4.499,0.423 -8.925,1.089 -14.078,2.119 -5.175,1.035 -8.017,1.483 -12.067,1.902 -4.401,0.456 -8.75,1.124 -13.905,2.137 -4.572,0.898 -9.272,1.605 -13.246,1.991 -5.165,0.502 -8.732,1.081 -16.536,2.686 -1.537,0.316 -4.855,0.826 -7.374,1.133 -6.097,0.743 -9.304,1.256 -15.978,2.553 -3.599,0.699 -7.058,1.217 -9.721,1.456 -4.826,0.433 -7.605,0.876 -17.542,2.793 -1.843,0.356 -5.665,0.907 -8.491,1.225 -4.651,0.523 -14.927,2.122 -20.845,3.243 -1.263,0.239 -3.777,0.592 -5.586,0.783 -5.584,0.591 -6.367,0.718 -17.368,2.799 -1.844,0.349 -4.76,0.796 -6.481,0.995 -8.236,0.95 -14.14,1.832 -20.121,3.006 -1.838,0.361 -4.7,0.82 -6.359,1.02 -1.659,0.2 -4.274,0.517 -5.81,0.704 -1.536,0.187 -5.207,0.786 -8.157,1.332 -8.685,1.605 -10.092,1.832 -14.424,2.318 -2.268,0.255 -5.28,0.657 -6.693,0.894 -3.716,0.622 -8.887,1.516 -11.66,2.015 -1.322,0.238 -3.639,0.591 -5.149,0.785 -8.233,1.055 -14.506,5.628 -18.5,13.487 -2.371,4.668 -2.263,13.055 0.351,27.072 1.446,7.756 1.85,10.314 2.33,14.748 0.561,5.186 1.061,8.412 2.234,14.414 0.93,4.76 1.4,7.879 1.786,11.843 0.422,4.346 1.514,11.322 2.343,14.972 0.598,2.635 1.241,7.034 1.784,12.191 0.577,5.495 1.18,9.61 1.909,13.03 0.92,4.321 1.576,8.468 2.02,12.768 1.871,18.118 3.464,21.008 10.831,19.656 0.984,-0.18 3.749,-0.531 6.146,-0.779 3.951,-0.41 12.096,-1.702 14.097,-2.236 2.301,-0.614 7.118,-1.353 11.491,-1.761 4.599,-0.43 6.797,-0.782 17.317,-2.775 2.273,-0.431 5.793,-0.945 7.821,-1.144 3.701,-0.362 10.843,-1.486 18.547,-2.918 2.274,-0.423 6.246,-0.977 8.827,-1.231 5.186,-0.511 6.661,-0.737 13.15,-2.019 6.362,-1.256 7.788,-1.481 12.66,-1.996 2.397,-0.253 5.464,-0.659 6.816,-0.902 1.352,-0.243 3.916,-0.694 5.698,-1.002 1.782,-0.309 4.066,-0.715 5.076,-0.904 3.072,-0.575 6.004,-0.979 9.655,-1.329 3.698,-0.355 3.854,-0.381 12.913,-2.103 6.726,-1.279 7.939,-1.457 13.138,-1.925 4.109,-0.369 6.842,-0.756 10.168,-1.438 7.614,-1.562 10.755,-2.074 15.866,-2.586 3.429,-0.343 7.734,-1.022 11.847,-1.87 4.102,-0.845 8.629,-1.573 11.84,-1.903 1.782,-0.184 4.346,-0.445 5.698,-0.582 1.352,-0.137 5.274,-0.791 8.715,-1.454 7.805,-1.503 9.609,-1.788 14.079,-2.217 1.966,-0.189 4.933,-0.593 6.592,-0.899 6.378,-1.173 7.987,-1.476 9.606,-1.81 2.286,-0.472 5.452,-0.901 9.835,-1.334 4.124,-0.407 6.473,-0.779 13.296,-2.105 5.831,-1.133 7.987,-1.462 12.514,-1.911 4.216,-0.417 6.993,-0.818 10.056,-1.45 3.915,-0.807 12.828,-2.235 16.872,-2.703 13.302,-1.539 19.797,-5.468 24.528,-14.839 3.387,-6.709 3.4,-12.423 0.067,-28.521 -0.561,-2.709 -1.12,-6.383 -1.464,-9.609 -0.828,-7.779 -1.177,-10.179 -2.128,-14.608 -1.14,-5.309 -1.459,-7.299 -1.901,-11.843 -0.555,-5.714 -1.114,-9.468 -2.328,-15.638 -1.008,-5.123 -1.279,-7.074 -2.031,-14.641 -0.323,-3.244 -1.132,-8.025 -2.136,-12.624 -0.429,-1.966 -0.98,-5.335 -1.223,-7.486 -1.109,-9.813 -4.199,-15.348 -11.165,-20 -4.497,-3.004 -7.259,-3.597 -14.968,-3.214 m 8.268,3.884 c 8.566,2.581 13.654,10.042 14.4,21.115 0.269,3.99 1.051,9.718 1.937,14.19 1.13,5.702 1.91,10.513 2.211,13.632 0.474,4.927 1.105,8.951 2.78,17.738 0.599,3.144 0.833,4.981 1.24,9.748 0.303,3.541 1.071,8.415 2.379,15.084 0.58,2.959 1.257,7.465 1.646,10.955 0.68,6.109 1.067,8.617 2.226,14.443 1.265,6.363 1.176,8.727 -0.527,13.931 -2.216,6.77 -5.949,10.812 -11.441,12.386 -6.721,1.927 -15.205,3.456 -21.826,3.934 -3.852,0.278 -5.618,0.567 -10.044,1.642 -4.57,1.11 -7.697,1.602 -14.366,2.261 -4.282,0.423 -7.103,0.841 -10.727,1.589 -5.754,1.189 -10.504,1.905 -16.089,2.426 -5.274,0.492 -7.526,0.855 -11.844,1.905 -3.371,0.82 -8.028,1.602 -11.284,1.893 -7.062,0.633 -10.662,1.172 -14.973,2.245 -2.894,0.72 -8.177,1.495 -13.743,2.016 -4.495,0.42 -8.142,0.978 -12.218,1.869 -4.033,0.882 -8.024,1.525 -11.234,1.812 -6.3,0.562 -11.146,1.286 -14.785,2.21 -2.836,0.719 -6.851,1.335 -12.653,1.94 -5.921,0.617 -9.827,1.191 -12.741,1.87 -3.085,0.72 -8.264,1.529 -12.905,2.016 -8.169,0.858 -10.848,1.257 -14.302,2.132 -2.926,0.74 -5.83,1.237 -9.761,1.67 -7.922,0.873 -11.581,1.357 -13.702,1.811 -7.491,1.604 -11.238,2.199 -18.995,3.018 -3.572,0.377 -6.539,0.82 -8.675,1.295 -3.996,0.89 -7.508,1.447 -12.889,2.044 -6.118,0.68 -10.81,1.348 -12.444,1.772 -2.487,0.646 -8.218,1.664 -10.684,1.898 -8.301,0.787 -16.349,2.089 -25.587,4.14 -4.172,0.926 -5.18,0.905 -6.283,-0.131 -0.697,-0.655 -1.426,-3.02 -1.429,-4.636 -0.001,-0.694 -0.244,-2.418 -0.54,-3.831 -0.296,-1.414 -0.789,-3.777 -1.097,-5.252 -0.307,-1.475 -0.718,-4.34 -0.913,-6.368 -0.706,-7.368 -0.827,-8.425 -1.261,-11.003 -0.243,-1.443 -0.733,-3.907 -1.088,-5.475 -1.399,-6.175 -1.617,-7.612 -2.028,-13.355 -0.356,-4.986 -1.152,-9.968 -2.474,-15.494 -0.594,-2.479 -1.023,-5.507 -1.321,-9.31 -0.5,-6.393 -1.044,-9.928 -2.456,-15.978 -0.858,-3.674 -1.238,-6.188 -1.672,-11.061 -0.5,-5.619 -0.922,-8.585 -1.828,-12.849 -0.431,-2.028 -0.973,-4.593 -1.205,-5.699 -2.527,-12.051 0.711,-19.62 10.735,-25.097 2.249,-1.229 3.674,-1.53 9.72,-2.058 6.972,-0.608 9.617,-0.983 14.079,-1.996 5.108,-1.16 7.28,-1.498 12.29,-1.914 6.743,-0.559 8.695,-0.876 15.084,-2.451 3.077,-0.758 5.444,-1.087 13.743,-1.91 5.269,-0.523 8.868,-1.094 11.856,-1.883 3.014,-0.796 5.431,-1.219 9.038,-1.585 10.339,-1.047 9.084,-0.864 16.536,-2.416 4.611,-0.96 7.714,-1.402 13.52,-1.926 4.932,-0.445 9.236,-1.087 12.288,-1.833 4.446,-1.087 7.187,-1.571 10.614,-1.874 6.35,-0.561 11.083,-1.261 15.98,-2.363 3.542,-0.797 6.206,-1.198 10.168,-1.532 4.875,-0.41 11.544,-1.312 14.19,-1.92 5.911,-1.357 7.705,-1.669 13.296,-2.309 5.747,-0.659 9.7,-1.294 16.648,-2.677 3.501,-0.696 4.956,-0.901 10.503,-1.481 3.479,-0.364 7.561,-1.002 13.561,-2.12 4.872,-0.908 5.862,-1.055 9.679,-1.44 6.875,-0.694 10.198,-1.19 15.084,-2.249 4.392,-0.952 6.89,-1.358 10.95,-1.782 1.782,-0.186 3.743,-0.392 4.357,-0.459 2.252,-0.244 7.216,-1.045 9.609,-1.552 4.796,-1.015 7.436,-1.439 12.514,-2.01 5.153,-0.579 9.999,-1.321 13.966,-2.137 8.582,-1.765 14.09,-2.154 17.207,-1.214 m -6.645,41.789 c -3.24,0.704 -7.976,4.585 -9.421,7.721 -3.815,8.276 2.359,18.098 11.365,18.082 8.655,-0.016 14.398,-6.368 13.195,-14.595 -1.063,-7.274 -8.365,-12.68 -15.139,-11.208 m -106.651,1.901 c -7.695,1.343 -10.709,6.982 -8.264,15.459 1.337,4.635 0.986,5.26 -4.03,7.18 -4.183,1.602 -5.723,4.752 -4.947,10.123 0.755,5.219 2.109,6.462 7.297,6.699 5.386,0.246 6.369,1.235 6.369,6.407 0,1.996 0.109,2.695 0.774,4.956 0.426,1.448 1.034,4.054 1.351,5.79 1.108,6.077 1.629,7.308 4.416,10.426 2.825,3.16 4.371,4.26 7.202,5.127 7.737,2.368 17.937,1.36 26.211,-2.589 11.845,-5.654 15.683,-10.921 13.217,-18.137 -1.852,-5.421 -8.735,-6.816 -14.758,-2.991 -5.939,3.771 -10.564,5.96 -12.252,5.798 -3.543,-0.34 -5.254,-2.883 -5.606,-8.331 -0.121,-1.882 -0.351,-3.404 -0.651,-4.321 -1.429,-4.37 0.098,-5.836 6.236,-5.988 11.214,-0.279 16.142,-4.367 15.001,-12.442 -0.956,-6.767 -9.085,-9.544 -17.678,-6.04 -5.421,2.21 -7.32,1.009 -7.825,-4.952 -0.734,-8.662 -5.371,-13.342 -12.063,-12.174 m 112.502,2.538 c 4.969,2.455 7.467,8.171 5.376,12.298 -4.182,8.255 -13.557,8.073 -17.538,-0.341 -3.257,-6.886 5.333,-15.332 12.162,-11.957 m -40.086,0.815 c -10.973,3.947 -12.663,19.408 -2.649,24.248 11.205,5.416 23.217,-5.286 18.16,-16.18 -2.812,-6.057 -10.288,-9.946 -15.511,-8.068 m -68.435,1.021 c 2.544,1.268 3.684,3.524 4.841,9.581 1.388,7.272 2.798,8.217 10.396,6.963 11.103,-1.833 14.427,-1.023 15.289,3.726 0.796,4.384 -3.596,6.699 -15.545,8.193 -6.231,0.779 -7.54,2.817 -6.014,9.364 0.362,1.552 0.769,3.677 0.905,4.722 0.86,6.604 3.026,9.554 7.565,10.304 3.481,0.575 6.958,-0.733 15.342,-5.769 5.094,-3.061 9.737,-1.064 9.716,4.178 -0.016,3.895 -4.338,7.627 -12.992,11.218 -7.135,2.961 -15.476,3.992 -20.689,2.556 -5.615,-1.547 -10.232,-7.475 -11,-14.122 -1.911,-16.533 -2.654,-18.016 -9.325,-18.624 -4.59,-0.419 -6.553,-2.128 -6.546,-5.703 0.006,-2.99 1.604,-4.642 5.859,-6.056 4.735,-1.573 5.603,-3.744 3.846,-9.622 -1.888,-6.318 -1.002,-9.13 3.453,-10.963 1.738,-0.715 3.393,-0.696 4.899,0.054 m 75.493,3.6 c 6.014,2.944 7.388,10.187 2.853,15.036 -5.382,5.753 -15.451,1.942 -15.912,-6.024 -0.397,-6.864 7.008,-11.975 13.059,-9.012 M 204.441,77.543 c -0.446,0.112 -1.854,0.636 -3.129,1.163 l -2.318,0.959 -4.872,-0.069 c -5.22,-0.074 -5.893,0.002 -9.764,1.111 -1.291,0.37 -3.701,1.015 -5.356,1.434 -3.2,0.81 -4.859,1.541 -7.05,3.105 -10.793,7.701 -11.749,19.725 -2.303,28.962 3.16,3.09 3.159,3.123 -0.298,5.858 -2.722,2.154 -2.859,8.13 -0.381,16.582 1.953,6.658 5.789,8.32 12.446,5.392 2.398,-1.053 2.382,-1.052 9.645,-1.129 6.744,-0.072 9.117,-0.352 12.067,-1.425 0.676,-0.246 2.777,-1.007 4.669,-1.691 12.721,-4.598 19.02,-16.103 14.391,-26.287 -2.433,-5.355 -4.533,-7.559 -8.6,-9.032 -2.619,-0.949 -2.764,-1.705 -0.748,-3.902 2.475,-2.697 2.876,-4.029 2.559,-8.511 -0.662,-9.354 -4.794,-14.075 -10.958,-12.52 m 3.443,4.106 c 4.049,1.738 5.692,11.52 2.4,14.29 -2.361,1.987 -4.148,1.92 -7.938,-0.298 -9.753,-5.707 -22.886,-3.137 -20.88,4.086 0.807,2.904 2.068,3.32 10.713,3.532 7.072,0.173 8.728,0.337 13.336,1.324 1.128,0.242 3.067,0.592 4.309,0.779 6.061,0.91 9.652,5.369 9.99,12.403 0.564,11.714 -11.743,19.442 -30.963,19.442 -5.1,0 -5.106,0.001 -9.476,1.658 -4.861,1.844 -7.73,-2.041 -8.359,-11.317 -0.43,-6.36 4.948,-8.357 10.64,-3.952 9.317,7.211 26.838,3.882 23.361,-4.438 -1.184,-2.834 -3.072,-3.373 -12.726,-3.633 -9.609,-0.259 -14.999,-1.001 -17.979,-2.476 -8.413,-4.163 -9.843,-16.17 -2.721,-22.833 4.731,-4.425 11.084,-6.242 22.04,-6.303 6.067,-0.033 5.989,-0.021 8.839,-1.462 2.326,-1.177 3.972,-1.421 5.414,-0.802 m 143.624,6.523 c -6.929,1.814 -11.865,8.754 -10.644,14.967 2.728,13.884 21.448,15.265 25.163,1.857 2.588,-9.339 -5.833,-19.097 -14.519,-16.824 m -226.48,1.777 c -5.413,0.893 -6.091,1.129 -10.873,3.772 -7.351,4.064 -11.009,7.966 -15.103,16.111 -1.521,3.027 -1.603,14.998 -0.132,19.344 2.66,7.862 8.694,14.753 16.201,18.503 7.307,3.649 21.095,3.443 30.23,-0.452 12.221,-5.211 16.956,-10.106 16.618,-17.177 -0.128,-2.676 -1.019,-4.539 -2.815,-5.879 -2.962,-2.212 -2.996,-2.341 -1.129,-4.225 4.477,-4.519 3.134,-11.736 -3.89,-20.902 -1.588,-2.073 -7.841,-6.555 -10.801,-7.743 -4.45,-1.785 -12.206,-2.358 -18.306,-1.352 m 232.361,2.906 c 3.881,1.559 6.197,5.66 5.548,9.827 -1.431,9.195 -13.477,11.068 -17.444,2.713 -3.675,-7.742 3.916,-15.744 11.896,-12.54 m -220.294,0.571 c 7.515,0.953 15.017,6.863 18.785,14.797 2.448,5.154 1.361,8.938 -2.919,10.17 -8.21,2.363 -13.117,3.465 -17.542,3.939 -11.469,1.229 -13.302,1.49 -15.048,2.143 -5.269,1.971 -2.726,8.179 4.154,10.143 6.947,1.982 17.896,-0.958 24.441,-6.563 3.555,-3.045 7.781,-2.58 9.151,1.006 1.821,4.77 -3.694,10.831 -12.771,14.034 -1.22,0.431 -2.831,1.029 -3.581,1.329 -4.985,1.993 -14.487,2.822 -19.754,1.723 -6.064,-1.266 -13.275,-6.024 -16.428,-10.84 -5.979,-9.131 -6.606,-18.231 -1.848,-26.815 6.292,-11.354 18.644,-16.932 33.36,-15.066 m 180.223,0.398 c -6.939,2.005 -10.739,8.05 -9.496,15.106 1.253,7.111 9.56,12.665 15.62,10.446 8.794,-3.221 12.356,-11.417 8.387,-19.296 -2.427,-4.819 -9.272,-7.77 -14.511,-6.256 m -123.231,1.925 c 2.681,0.513 4.805,1.932 4.414,2.95 -0.307,0.801 -1.416,1.02 -6.281,1.238 -5.512,0.248 -6.528,0.072 -7.073,-1.225 -1.054,-2.506 3.477,-4.008 8.94,-2.963 m 130.23,2.198 c 8.331,4.117 7.056,15.054 -2.066,17.73 -5.017,1.471 -11.301,-3.64 -11.301,-9.192 0,-6.817 7.35,-11.512 13.367,-8.538 m -258.96,0.926 c -2.021,0.367 -4.369,1.46 -7.033,3.275 -3.17,2.158 -3.192,2.164 -5.894,1.544 -4.534,-1.04 -6.444,-1.08 -10.482,-0.217 -7.727,1.65 -11.448,4.988 -11.443,10.264 0.003,3.728 0.725,4.945 4.689,7.902 3.686,2.75 4.096,3.588 4.916,10.064 0.298,2.35 0.758,5.323 1.022,6.607 0.722,3.509 0.451,4.71 -1.593,7.046 -2.656,3.035 -3.543,6.404 -2.651,10.072 1.464,6.021 5.567,7.385 17.713,5.891 7.196,-0.885 9.714,-1.736 13.069,-4.418 2.407,-1.924 3.063,-1.957 6.743,-0.336 4.829,2.127 21.11,-1.009 25.372,-4.887 2.031,-1.848 2.748,-4.536 2.027,-7.607 -0.639,-2.72 -1.214,-3.495 -4.987,-6.714 -2.074,-1.771 -2.848,-2.627 -3.473,-3.839 -0.501,-0.974 -1.672,-8.1 -2.061,-12.547 C 90.3,109.666 84.078,100.533 76.233,98.87 74.357,98.472 67.552,98.474 65.357,98.873 m 9.727,3.372 c 3.467,1.024 8.022,4.915 9.42,8.046 3.524,7.898 3.773,8.91 4.549,18.545 0.545,6.77 1.02,7.794 4.913,10.605 4.018,2.901 5.105,5.563 3.451,8.448 -1.221,2.128 -3.152,2.979 -9.002,3.966 -1.863,0.314 -4.192,0.785 -5.175,1.047 -4.167,1.111 -7.187,0.611 -9.344,-1.547 -2.805,-2.805 -2.596,-5.354 0.744,-9.074 2.383,-2.655 2.702,-3.788 2.121,-7.532 -0.2,-1.291 -0.506,-3.728 -0.681,-5.416 -1.407,-13.574 -8.661,-19.058 -15.771,-11.926 -3.749,3.761 -4.479,7.611 -3.138,16.559 0.954,6.364 1.284,7.032 5.515,11.174 4.581,4.482 4.826,6.63 1.069,9.362 -3.551,2.582 -17.373,4.78 -20.291,3.227 -4.064,-2.162 -4.419,-6.089 -0.907,-10.02 2.847,-3.186 3.217,-4.672 2.257,-9.05 -0.346,-1.576 -0.725,-4.386 -0.92,-6.815 -0.666,-8.33 -1.041,-9.218 -5.227,-12.405 -3.859,-2.938 -4.835,-4.913 -3.728,-7.547 1.524,-3.626 10.468,-6.27 15.34,-4.534 4.889,1.742 5.096,1.713 8.957,-1.22 5.186,-3.94 10.92,-5.349 15.848,-3.893 m 52.531,1.234 c -6.759,1.204 -11.989,5.163 -12.471,9.442 -0.382,3.387 2.428,4.164 9.214,2.547 4.805,-1.145 5.425,-1.246 9.273,-1.504 5.685,-0.381 7.344,-1.179 7.547,-3.626 0.36,-4.341 -6.95,-8.037 -13.563,-6.859 m 6.646,3.425 c 1.92,0.695 2.911,1.809 2.625,2.949 -0.219,0.874 -1.528,1.269 -4.819,1.455 -1.659,0.094 -4.208,0.379 -5.665,0.633 -5.412,0.943 -7.259,0.231 -5.543,-2.137 1.901,-2.624 9.578,-4.285 13.402,-2.9 m -66.186,11.29 c 1.25,0.762 2.618,3.245 3.089,5.605 0.086,0.43 0.396,1.838 0.689,3.128 2.588,11.406 2.636,10.809 -1.184,14.744 -1.956,2.015 -2.258,2.243 -2.972,2.241 -2.008,-0.004 -5.358,-3.506 -6.016,-6.287 -0.738,-3.121 -1.871,-10.122 -1.857,-11.48 0.052,-5.197 4.979,-9.946 8.251,-7.951 m 132.04,1.191 c 2.175,1.125 2.054,3.076 -0.261,4.216 -1.658,0.816 -9.395,0.807 -11.91,-0.014 -2.852,-0.931 -4.761,-3.279 -3.307,-4.067 1.235,-0.671 14.224,-0.783 15.478,-0.135 m -54.466,5.209 c 2.208,1.547 -4.237,5.917 -10.23,6.936 -6.569,1.117 -11.747,0.434 -12.848,-1.695 -0.982,-1.898 0.416,-2.879 4.929,-3.456 1.467,-0.188 3.573,-0.503 4.679,-0.701 7.22,-1.288 12.564,-1.719 13.47,-1.084"
         id="path1"
         inkscape:connector-curvature="0"
         style="fill:#fc8764;fill-rule:evenodd;stroke:none" />
      <path
         d="M 0,111.732 V 223.464 H 200 400 V 111.732 0 H 200 0 V 111.732 M 353.384,9.29 c 3.737,0.748 9.351,4.61 12.104,8.325 3.315,4.475 4.44,7.61 5.226,14.566 0.243,2.151 0.794,5.52 1.223,7.486 1.004,4.599 1.813,9.38 2.136,12.624 0.752,7.567 1.023,9.518 2.031,14.641 1.214,6.17 1.773,9.924 2.328,15.638 0.442,4.544 0.761,6.534 1.901,11.843 0.951,4.429 1.3,6.829 2.128,14.608 0.344,3.226 0.903,6.9 1.464,9.609 3.333,16.098 3.32,21.812 -0.067,28.521 -4.731,9.371 -11.226,13.3 -24.528,14.839 -4.044,0.468 -12.957,1.896 -16.872,2.703 -3.063,0.632 -5.84,1.033 -10.056,1.45 -4.527,0.449 -6.683,0.778 -12.514,1.911 -6.823,1.326 -9.172,1.698 -13.296,2.105 -4.383,0.433 -7.549,0.862 -9.835,1.334 -1.619,0.334 -3.228,0.637 -9.606,1.81 -1.659,0.306 -4.626,0.71 -6.592,0.899 -4.47,0.429 -6.274,0.714 -14.079,2.217 -3.441,0.663 -7.363,1.317 -8.715,1.454 -1.352,0.137 -3.916,0.398 -5.698,0.582 -3.211,0.33 -7.738,1.058 -11.84,1.903 -4.113,0.848 -8.418,1.527 -11.847,1.87 -5.111,0.512 -8.252,1.024 -15.866,2.586 -3.326,0.682 -6.059,1.069 -10.168,1.438 -5.199,0.468 -6.412,0.646 -13.138,1.925 -9.059,1.722 -9.215,1.748 -12.913,2.103 -3.651,0.35 -6.583,0.754 -9.655,1.329 -1.01,0.189 -3.294,0.595 -5.076,0.904 -1.782,0.308 -4.346,0.759 -5.698,1.002 -1.352,0.243 -4.419,0.649 -6.816,0.902 -4.872,0.515 -6.298,0.74 -12.66,1.996 -6.489,1.282 -7.964,1.508 -13.15,2.019 -2.581,0.254 -6.553,0.808 -8.827,1.231 -7.704,1.432 -14.846,2.556 -18.547,2.918 -2.028,0.199 -5.548,0.713 -7.821,1.144 -10.52,1.993 -12.718,2.345 -17.317,2.775 -4.373,0.408 -9.19,1.147 -11.491,1.761 -2.001,0.534 -10.146,1.826 -14.097,2.236 -2.397,0.248 -5.162,0.599 -6.146,0.779 -7.367,1.352 -8.96,-1.538 -10.831,-19.656 -0.444,-4.3 -1.1,-8.447 -2.02,-12.768 -0.729,-3.42 -1.332,-7.535 -1.909,-13.03 -0.543,-5.157 -1.186,-9.556 -1.784,-12.191 -0.829,-3.65 -1.921,-10.626 -2.343,-14.972 -0.386,-3.964 -0.856,-7.083 -1.786,-11.843 -1.173,-6.002 -1.673,-9.228 -2.234,-14.414 -0.48,-4.434 -0.884,-6.992 -2.33,-14.748 C 11.143,83.637 11.035,75.25 13.406,70.582 17.4,62.723 23.673,58.15 31.906,57.095 c 1.51,-0.194 3.827,-0.547 5.149,-0.785 2.773,-0.499 7.944,-1.393 11.66,-2.015 1.413,-0.237 4.425,-0.639 6.693,-0.894 4.332,-0.486 5.739,-0.713 14.424,-2.318 2.95,-0.546 6.621,-1.145 8.157,-1.332 1.536,-0.187 4.151,-0.504 5.81,-0.704 1.659,-0.2 4.521,-0.659 6.359,-1.02 5.981,-1.174 11.885,-2.056 20.121,-3.006 1.721,-0.199 4.637,-0.646 6.481,-0.995 11.001,-2.081 11.784,-2.208 17.368,-2.799 1.809,-0.191 4.323,-0.544 5.586,-0.783 5.918,-1.121 16.194,-2.72 20.845,-3.243 2.826,-0.318 6.648,-0.869 8.491,-1.225 9.937,-1.917 12.716,-2.36 17.542,-2.793 2.663,-0.239 6.122,-0.757 9.721,-1.456 6.674,-1.297 9.881,-1.81 15.978,-2.553 2.519,-0.307 5.837,-0.817 7.374,-1.133 7.804,-1.605 11.371,-2.184 16.536,-2.686 3.974,-0.386 8.674,-1.093 13.246,-1.991 5.155,-1.013 9.504,-1.681 13.905,-2.137 4.05,-0.419 6.892,-0.867 12.067,-1.902 5.153,-1.03 9.579,-1.696 14.078,-2.119 3.716,-0.348 6.224,-0.741 11.285,-1.766 6.347,-1.286 9.377,-1.752 14.63,-2.254 5.516,-0.526 4.675,-0.397 12.409,-1.906 11.698,-2.282 20.634,-2.978 25.563,-1.99 m -6.728,49.121 c -5.477,1.791 -8.882,8.146 -6.763,12.625 3.981,8.414 13.356,8.596 17.538,0.341 3.069,-6.058 -4.403,-15.049 -10.775,-12.966 m -108.021,2.45 c -4.455,1.833 -5.341,4.645 -3.453,10.963 1.757,5.878 0.889,8.049 -3.846,9.622 -4.255,1.414 -5.853,3.066 -5.859,6.056 -0.007,3.575 1.956,5.284 6.546,5.703 6.671,0.608 7.414,2.091 9.325,18.624 0.768,6.647 5.385,12.575 11,14.122 8.015,2.208 22.145,-1.45 29.994,-7.764 7.692,-6.188 2.347,-15.22 -6.029,-10.188 -8.384,5.036 -11.861,6.344 -15.342,5.769 -4.539,-0.75 -6.705,-3.7 -7.565,-10.304 -0.136,-1.045 -0.543,-3.17 -0.905,-4.722 -1.526,-6.547 -0.217,-8.585 6.014,-9.364 11.949,-1.494 16.341,-3.809 15.545,-8.193 -0.862,-4.749 -4.186,-5.559 -15.289,-3.726 -7.598,1.254 -9.008,0.309 -10.396,-6.963 -1.652,-8.65 -4.73,-11.695 -9.74,-9.635 m 75.455,2.863 c -6.244,0.917 -9.907,7.589 -7.232,13.174 4.178,8.727 17.209,6.193 17.775,-3.456 0.32,-5.451 -5.166,-10.508 -10.543,-9.718 M 204.469,81.55 c -0.307,0.095 -1.207,0.5 -1.999,0.901 -2.85,1.441 -2.772,1.429 -8.839,1.462 -10.956,0.061 -17.309,1.878 -22.04,6.303 -7.122,6.663 -5.692,18.67 2.721,22.833 2.98,1.475 8.37,2.217 17.979,2.476 9.654,0.26 11.542,0.799 12.726,3.633 3.477,8.32 -14.044,11.649 -23.361,4.438 -5.692,-4.405 -11.07,-2.408 -10.64,3.952 0.629,9.276 3.498,13.161 8.359,11.317 4.37,-1.657 4.376,-1.658 9.476,-1.658 19.22,0 31.527,-7.728 30.963,-19.442 -0.338,-7.034 -3.929,-11.493 -9.99,-12.403 -1.242,-0.187 -3.181,-0.537 -4.309,-0.779 -4.608,-0.987 -6.264,-1.151 -13.336,-1.324 -8.645,-0.212 -9.906,-0.628 -10.713,-3.532 -2.006,-7.223 11.127,-9.793 20.88,-4.086 6.779,3.967 11.35,-0.037 9.281,-8.13 -1.246,-4.869 -3.795,-6.992 -7.158,-5.961 m 147.039,10.81 c -5.772,1.672 -8.551,7.692 -6.015,13.035 3.967,8.355 16.013,6.482 17.444,-2.713 0.995,-6.388 -5.32,-12.092 -11.429,-10.322 m -222.793,0.853 c -13.956,0.656 -26.272,11.131 -27.949,23.77 -1.097,8.264 2.854,18.01 9.513,23.473 1.308,1.073 7.548,4.484 9.137,4.995 5.923,1.904 16.202,1.431 22.349,-1.027 0.75,-0.3 2.361,-0.898 3.581,-1.329 9.077,-3.203 14.592,-9.264 12.771,-14.034 -1.37,-3.586 -5.596,-4.051 -9.151,-1.006 -6.545,5.605 -17.494,8.545 -24.441,6.563 -6.88,-1.964 -9.423,-8.172 -4.154,-10.143 1.746,-0.653 3.579,-0.914 15.048,-2.143 4.425,-0.474 9.332,-1.576 17.542,-3.939 10.978,-3.16 -1.741,-23.176 -15.866,-24.967 -2.5,-0.317 -4.873,-0.377 -8.38,-0.213 m 189.114,4.082 c -7.06,2.302 -9.138,10.658 -3.884,15.615 4.326,4.081 9.07,3.962 13.44,-0.337 6.458,-6.354 -0.891,-18.104 -9.556,-15.278 m -249.816,4.696 c -3.206,0.612 -5.637,1.761 -8.777,4.147 -3.861,2.933 -4.068,2.962 -8.957,1.22 -4.872,-1.736 -13.816,0.908 -15.34,4.534 -1.107,2.634 -0.131,4.609 3.728,7.547 4.186,3.187 4.561,4.075 5.227,12.405 0.195,2.429 0.574,5.239 0.92,6.815 0.96,4.378 0.59,5.864 -2.257,9.05 -3.512,3.931 -3.157,7.858 0.907,10.02 2.918,1.553 16.74,-0.645 20.291,-3.227 3.757,-2.732 3.512,-4.88 -1.069,-9.362 -4.231,-4.142 -4.561,-4.81 -5.515,-11.174 -1.341,-8.948 -0.611,-12.798 3.138,-16.559 7.11,-7.132 14.364,-1.648 15.771,11.926 0.175,1.688 0.481,4.125 0.681,5.416 0.581,3.744 0.262,4.877 -2.121,7.532 -3.34,3.72 -3.549,6.269 -0.744,9.074 2.157,2.158 5.177,2.658 9.344,1.547 0.983,-0.262 3.312,-0.733 5.175,-1.047 5.85,-0.987 7.781,-1.838 9.002,-3.966 1.654,-2.885 0.567,-5.547 -3.451,-8.448 -3.893,-2.811 -4.368,-3.835 -4.913,-10.605 -0.776,-9.635 -1.025,-10.647 -4.549,-18.545 -1.398,-3.131 -5.953,-7.022 -9.42,-8.046 -1.709,-0.505 -5.118,-0.627 -7.071,-0.254 m 66.177,1.804 c 4.593,1.22 7.225,3.683 6.988,6.543 -0.203,2.447 -1.862,3.245 -7.547,3.626 -3.848,0.258 -4.468,0.359 -9.273,1.504 -6.786,1.617 -9.596,0.84 -9.214,-2.547 0.696,-6.179 11.196,-11.209 19.046,-9.126"
         id="path2-8"
         inkscape:connector-curvature="0"
         style="fill:#fcfbfa;fill-rule:evenodd;stroke:none" />
    </g>
  </g>
</svg>
